<svg width="55" height="104" viewBox="0 0 55 104" fill="none" xmlns="http://www.w3.org/2000/svg">
<g id="Vector">
<path d="M13.6748 82.3715L18.4867 87.8629C18.7966 88.2217 18.5779 88.8249 18.1359 88.8249H13.324C13.0506 88.8249 12.8318 88.5753 12.8318 88.2633V82.7719C12.8318 82.2675 13.3604 82.0179 13.6748 82.3715Z" fill="#F4F4F4"/>
<path d="M18.5642 39.3246V45.8768C18.5642 46.3344 18.7237 46.7765 19.0062 47.0989L28.8853 58.3728C29.1678 58.6952 29.3273 59.1372 29.3273 59.5948V63.963C29.3273 65.5022 27.7005 66.2718 26.7436 65.185L21.1388 58.7888C20.1819 57.702 18.5551 58.4716 18.5551 60.0109V66.5475C18.5551 67.0051 18.7146 67.4471 18.9971 67.7695L28.9035 79.0746C29.186 79.397 29.3455 79.8391 29.3455 80.2967V84.6648C29.3455 86.1989 27.7187 86.9737 26.7618 85.8868L13.2602 70.4788C12.9776 70.1564 12.8181 69.7143 12.8181 69.2567V26.761C12.8181 25.8042 13.4925 25.0346 14.331 25.0346H17.1562C17.5572 25.0346 17.9445 25.2166 18.227 25.539L18.546 25.9082L28.8989 37.723C29.1815 38.0454 29.3409 38.4874 29.3409 38.945V43.3131C29.3409 44.8524 27.7142 45.622 26.7573 44.5352L21.1251 38.1078C20.1682 37.021 18.5414 37.7906 18.5414 39.3298" fill="#F4F4F4"/>
<path d="M0.0091224 60.1565V2.2787C0.0091224 1.32187 0.683525 0.552246 1.52197 0.552246H13.8434C14.2444 0.552246 14.6317 0.734252 14.9143 1.05666L20.0269 6.89124C20.6193 7.56726 21.5762 7.56726 22.164 6.89124L27.2813 1.05666C27.5638 0.734252 27.9466 0.552246 28.3476 0.552246H40.669C41.5075 0.552246 42.1819 1.32187 42.1819 2.2787V87.0985C42.1819 88.0553 41.5075 88.8249 40.669 88.8249H37.9623C37.1239 88.8249 36.4495 88.0553 36.4495 87.0985V8.8205C36.4495 7.86367 35.7751 7.09405 34.9366 7.09405H30.7216C30.3252 7.09405 29.9379 7.27605 29.6553 7.59846L26.215 11.5194C25.6272 12.1902 25.6272 13.2874 26.215 13.9583L28.9126 17.0419C29.1951 17.3644 29.3546 17.8064 29.3546 18.264V22.6321C29.3546 24.1714 27.7278 24.9358 26.7709 23.8542L12.5265 7.59846C12.244 7.27605 11.8567 7.09405 11.4602 7.09405H7.24525C6.4068 7.09405 5.7324 7.86367 5.7324 8.8205V60.1565C5.7324 61.1133 5.058 61.8829 4.21956 61.8829H1.51284C0.674403 61.8829 0 61.1133 0 60.1565" fill="#F4F4F4"/>
<path d="M54.9954 2.2787V101.721C54.9954 102.678 54.3211 103.448 53.4826 103.448H1.52653C0.688086 103.448 0.0136836 102.678 0.0136836 101.721V71.6904C0.0136836 70.7336 0.688086 69.964 1.52653 69.964H4.23324C5.07168 69.964 5.74609 70.7336 5.74609 71.6904V95.1795C5.74609 96.1364 6.42049 96.906 7.25893 96.906H47.7548C48.5932 96.906 49.2676 96.1364 49.2676 95.1795V2.2787C49.2676 1.32187 49.942 0.552246 50.7804 0.552246H53.4872C54.3256 0.552246 55 1.32187 55 2.2787" fill="#F4F4F4"/>
</g>
</svg>
